%TF.GenerationSoftware,KiCad,Pcbnew,7.0.8*%
%TF.CreationDate,2024-05-19T14:37:02-04:00*%
%TF.ProjectId,TempHumiditySensor,54656d70-4875-46d6-9964-69747953656e,rev?*%
%TF.SameCoordinates,Original*%
%TF.FileFunction,Copper,L2,Bot*%
%TF.FilePolarity,Positive*%
%FSLAX46Y46*%
G04 Gerber Fmt 4.6, Leading zero omitted, Abs format (unit mm)*
G04 Created by KiCad (PCBNEW 7.0.8) date 2024-05-19 14:37:02*
%MOMM*%
%LPD*%
G01*
G04 APERTURE LIST*
%TA.AperFunction,ComponentPad*%
%ADD10O,1.000000X1.000000*%
%TD*%
%TA.AperFunction,ComponentPad*%
%ADD11R,1.000000X1.000000*%
%TD*%
%TA.AperFunction,ViaPad*%
%ADD12C,0.700000*%
%TD*%
%TA.AperFunction,Conductor*%
%ADD13C,0.300000*%
%TD*%
G04 APERTURE END LIST*
D10*
%TO.P,J1,4,Pin_4*%
%TO.N,GND*%
X131500000Y-77410000D03*
%TO.P,J1,3,Pin_3*%
%TO.N,SDA*%
X131500000Y-76140000D03*
%TO.P,J1,2,Pin_2*%
%TO.N,SCL*%
X131500000Y-74870000D03*
D11*
%TO.P,J1,1,Pin_1*%
%TO.N,+3.3V*%
X131500000Y-73600000D03*
%TD*%
D12*
%TO.N,+3.3V*%
X134250000Y-75569500D03*
X134250000Y-74170500D03*
%TO.N,GND*%
X138272100Y-77500001D03*
X140222100Y-75250001D03*
X139622100Y-73750001D03*
%TD*%
D13*
%TO.N,+3.3V*%
X134250000Y-74170500D02*
X134250000Y-75569500D01*
%TD*%
%TA.AperFunction,Conductor*%
%TO.N,GND*%
G36*
X139501735Y-67450598D02*
G01*
X139635075Y-67458085D01*
X139781984Y-67466336D01*
X139788875Y-67467112D01*
X140024574Y-67507158D01*
X140063879Y-67513837D01*
X140070662Y-67515385D01*
X140338700Y-67592605D01*
X140345264Y-67594901D01*
X140602978Y-67701650D01*
X140609226Y-67704660D01*
X140853371Y-67839594D01*
X140859249Y-67843287D01*
X141086753Y-68004710D01*
X141092179Y-68009037D01*
X141300170Y-68194909D01*
X141305090Y-68199829D01*
X141490962Y-68407820D01*
X141495291Y-68413249D01*
X141656708Y-68640745D01*
X141660405Y-68646628D01*
X141795335Y-68890764D01*
X141798354Y-68897033D01*
X141905096Y-69154732D01*
X141907394Y-69161299D01*
X141984614Y-69429337D01*
X141986162Y-69436120D01*
X142032885Y-69711110D01*
X142033664Y-69718024D01*
X142049402Y-69998264D01*
X142049500Y-70001741D01*
X142049500Y-80998258D01*
X142049402Y-81001735D01*
X142033664Y-81281975D01*
X142032885Y-81288889D01*
X141986162Y-81563879D01*
X141984614Y-81570662D01*
X141907394Y-81838700D01*
X141905096Y-81845267D01*
X141798354Y-82102966D01*
X141795335Y-82109235D01*
X141660405Y-82353371D01*
X141656703Y-82359263D01*
X141495300Y-82586739D01*
X141490962Y-82592179D01*
X141305090Y-82800170D01*
X141300170Y-82805090D01*
X141092179Y-82990962D01*
X141086739Y-82995300D01*
X140859263Y-83156703D01*
X140853371Y-83160405D01*
X140609235Y-83295335D01*
X140602966Y-83298354D01*
X140345267Y-83405096D01*
X140338700Y-83407394D01*
X140070662Y-83484614D01*
X140063879Y-83486162D01*
X139788889Y-83532885D01*
X139781975Y-83533664D01*
X139501735Y-83549402D01*
X139498258Y-83549500D01*
X132501742Y-83549500D01*
X132498265Y-83549402D01*
X132218024Y-83533664D01*
X132211110Y-83532885D01*
X131936120Y-83486162D01*
X131929337Y-83484614D01*
X131661299Y-83407394D01*
X131654732Y-83405096D01*
X131490846Y-83337212D01*
X131397029Y-83298352D01*
X131390764Y-83295335D01*
X131146628Y-83160405D01*
X131140745Y-83156708D01*
X130913249Y-82995291D01*
X130907820Y-82990962D01*
X130699829Y-82805090D01*
X130694909Y-82800170D01*
X130509037Y-82592179D01*
X130504710Y-82586753D01*
X130343287Y-82359249D01*
X130339594Y-82353371D01*
X130216631Y-82130887D01*
X130204660Y-82109226D01*
X130201650Y-82102978D01*
X130094901Y-81845264D01*
X130092605Y-81838700D01*
X130015385Y-81570662D01*
X130013837Y-81563879D01*
X130002135Y-81495006D01*
X129967112Y-81288875D01*
X129966336Y-81281984D01*
X129958085Y-81135075D01*
X129950598Y-81001735D01*
X129950549Y-81000001D01*
X131190517Y-81000001D01*
X131210410Y-81227383D01*
X131210412Y-81227394D01*
X131269485Y-81447862D01*
X131269487Y-81447866D01*
X131269488Y-81447870D01*
X131291468Y-81495006D01*
X131365953Y-81654740D01*
X131365955Y-81654744D01*
X131496878Y-81841719D01*
X131658280Y-82003121D01*
X131845255Y-82134044D01*
X131845259Y-82134046D01*
X132052130Y-82230512D01*
X132272611Y-82289589D01*
X132443044Y-82304500D01*
X132556956Y-82304500D01*
X132727389Y-82289589D01*
X132947870Y-82230512D01*
X133154741Y-82134046D01*
X133159253Y-82130887D01*
X133171839Y-82122073D01*
X133341719Y-82003122D01*
X133503122Y-81841719D01*
X133634046Y-81654742D01*
X133730512Y-81447870D01*
X133789589Y-81227389D01*
X133809483Y-81000001D01*
X138190517Y-81000001D01*
X138210410Y-81227383D01*
X138210412Y-81227394D01*
X138269485Y-81447862D01*
X138269487Y-81447866D01*
X138269488Y-81447870D01*
X138291468Y-81495006D01*
X138365953Y-81654740D01*
X138365955Y-81654744D01*
X138496878Y-81841719D01*
X138658280Y-82003121D01*
X138845255Y-82134044D01*
X138845259Y-82134046D01*
X139052130Y-82230512D01*
X139272611Y-82289589D01*
X139443044Y-82304500D01*
X139556956Y-82304500D01*
X139727389Y-82289589D01*
X139947870Y-82230512D01*
X140154741Y-82134046D01*
X140159253Y-82130887D01*
X140171839Y-82122073D01*
X140341719Y-82003122D01*
X140503122Y-81841719D01*
X140634046Y-81654742D01*
X140730512Y-81447870D01*
X140789589Y-81227389D01*
X140809483Y-81000000D01*
X140789589Y-80772611D01*
X140730512Y-80552130D01*
X140634046Y-80345259D01*
X140634044Y-80345255D01*
X140503121Y-80158280D01*
X140341719Y-79996878D01*
X140154744Y-79865955D01*
X140154740Y-79865953D01*
X140051305Y-79817721D01*
X139947870Y-79769488D01*
X139947866Y-79769487D01*
X139947862Y-79769485D01*
X139727394Y-79710412D01*
X139727384Y-79710410D01*
X139556956Y-79695500D01*
X139443044Y-79695500D01*
X139272615Y-79710410D01*
X139272605Y-79710412D01*
X139052137Y-79769485D01*
X139052128Y-79769489D01*
X138845259Y-79865953D01*
X138845255Y-79865955D01*
X138658280Y-79996878D01*
X138496881Y-80158277D01*
X138496872Y-80158287D01*
X138365955Y-80345254D01*
X138365953Y-80345258D01*
X138269489Y-80552128D01*
X138269485Y-80552137D01*
X138210412Y-80772605D01*
X138210410Y-80772616D01*
X138190517Y-80999998D01*
X138190517Y-81000001D01*
X133809483Y-81000001D01*
X133809483Y-81000000D01*
X133789589Y-80772611D01*
X133730512Y-80552130D01*
X133634046Y-80345259D01*
X133634044Y-80345255D01*
X133503121Y-80158280D01*
X133341719Y-79996878D01*
X133154744Y-79865955D01*
X133154740Y-79865953D01*
X133051305Y-79817721D01*
X132947870Y-79769488D01*
X132947866Y-79769487D01*
X132947862Y-79769485D01*
X132727394Y-79710412D01*
X132727384Y-79710410D01*
X132556956Y-79695500D01*
X132443044Y-79695500D01*
X132272615Y-79710410D01*
X132272605Y-79710412D01*
X132052137Y-79769485D01*
X132052128Y-79769489D01*
X131845259Y-79865953D01*
X131845255Y-79865955D01*
X131658280Y-79996878D01*
X131496881Y-80158277D01*
X131496872Y-80158287D01*
X131365955Y-80345254D01*
X131365953Y-80345258D01*
X131269489Y-80552128D01*
X131269485Y-80552137D01*
X131210412Y-80772605D01*
X131210410Y-80772616D01*
X131190517Y-80999998D01*
X131190517Y-81000001D01*
X129950549Y-81000001D01*
X129950500Y-80998258D01*
X129950500Y-77660000D01*
X130530840Y-77660000D01*
X130571652Y-77794541D01*
X130664503Y-77968253D01*
X130664507Y-77968260D01*
X130789471Y-78120528D01*
X130941739Y-78245491D01*
X131115465Y-78338349D01*
X131250000Y-78379159D01*
X131250000Y-77660000D01*
X130530840Y-77660000D01*
X129950500Y-77660000D01*
X129950500Y-77159999D01*
X130530839Y-77159999D01*
X130530840Y-77160000D01*
X131285517Y-77160000D01*
X131214199Y-77244993D01*
X131175000Y-77352694D01*
X131175000Y-77467306D01*
X131214199Y-77575007D01*
X131287871Y-77662805D01*
X131387129Y-77720112D01*
X131471564Y-77735000D01*
X131528436Y-77735000D01*
X131612871Y-77720112D01*
X131712129Y-77662805D01*
X131714483Y-77660000D01*
X131750000Y-77660000D01*
X131750000Y-78379159D01*
X131884534Y-78338349D01*
X132058260Y-78245491D01*
X132210528Y-78120528D01*
X132335492Y-77968260D01*
X132335496Y-77968253D01*
X132428347Y-77794541D01*
X132469160Y-77660000D01*
X131750000Y-77660000D01*
X131714483Y-77660000D01*
X131785801Y-77575007D01*
X131825000Y-77467306D01*
X131825000Y-77352694D01*
X131785801Y-77244993D01*
X131714483Y-77160000D01*
X132469160Y-77160000D01*
X132469160Y-77159999D01*
X132428347Y-77025458D01*
X132335496Y-76851746D01*
X132335492Y-76851739D01*
X132210534Y-76699479D01*
X132208815Y-76697760D01*
X132208201Y-76696635D01*
X132206664Y-76694763D01*
X132207019Y-76694471D01*
X132175325Y-76636439D01*
X132180304Y-76566747D01*
X132191495Y-76544100D01*
X132225789Y-76489522D01*
X132285368Y-76319255D01*
X132285369Y-76319249D01*
X132305565Y-76140003D01*
X132305565Y-76139996D01*
X132285369Y-75960750D01*
X132285368Y-75960745D01*
X132225788Y-75790476D01*
X132129815Y-75637737D01*
X132084759Y-75592681D01*
X132072101Y-75569500D01*
X133594722Y-75569500D01*
X133613762Y-75726318D01*
X133669780Y-75874023D01*
X133759517Y-76004030D01*
X133877760Y-76108783D01*
X133877762Y-76108784D01*
X134017634Y-76182196D01*
X134171014Y-76220000D01*
X134171015Y-76220000D01*
X134328985Y-76220000D01*
X134482365Y-76182196D01*
X134622240Y-76108783D01*
X134740483Y-76004030D01*
X134830220Y-75874023D01*
X134886237Y-75726318D01*
X134905278Y-75569500D01*
X134886237Y-75412682D01*
X134830220Y-75264977D01*
X134740483Y-75134970D01*
X134740479Y-75134966D01*
X134735509Y-75129356D01*
X134736953Y-75128076D01*
X134705145Y-75077360D01*
X134700500Y-75043740D01*
X134700500Y-74696259D01*
X134720185Y-74629220D01*
X134735846Y-74610944D01*
X134735509Y-74610645D01*
X134740481Y-74605032D01*
X134740481Y-74605031D01*
X134740483Y-74605030D01*
X134830220Y-74475023D01*
X134886237Y-74327318D01*
X134905278Y-74170500D01*
X134905217Y-74169993D01*
X134886237Y-74013681D01*
X134864992Y-73957664D01*
X134830220Y-73865977D01*
X134740483Y-73735970D01*
X134622240Y-73631217D01*
X134622238Y-73631216D01*
X134622237Y-73631215D01*
X134482365Y-73557803D01*
X134328986Y-73520000D01*
X134328985Y-73520000D01*
X134171015Y-73520000D01*
X134171014Y-73520000D01*
X134017634Y-73557803D01*
X133877762Y-73631215D01*
X133759516Y-73735971D01*
X133669781Y-73865975D01*
X133669780Y-73865976D01*
X133613762Y-74013681D01*
X133594722Y-74170499D01*
X133594722Y-74170500D01*
X133613762Y-74327318D01*
X133669780Y-74475023D01*
X133669781Y-74475024D01*
X133759518Y-74605032D01*
X133764491Y-74610645D01*
X133763044Y-74611926D01*
X133794850Y-74662620D01*
X133799500Y-74696259D01*
X133799500Y-75043740D01*
X133779815Y-75110779D01*
X133764153Y-75129056D01*
X133764491Y-75129356D01*
X133759515Y-75134972D01*
X133669781Y-75264975D01*
X133669780Y-75264976D01*
X133613762Y-75412681D01*
X133594722Y-75569499D01*
X133594722Y-75569500D01*
X132072101Y-75569500D01*
X132051274Y-75531358D01*
X132056258Y-75461666D01*
X132084759Y-75417319D01*
X132089397Y-75412681D01*
X132129816Y-75372262D01*
X132225789Y-75219522D01*
X132285368Y-75049255D01*
X132285369Y-75049249D01*
X132305565Y-74870003D01*
X132305565Y-74869996D01*
X132285369Y-74690750D01*
X132285366Y-74690737D01*
X132225790Y-74520481D01*
X132225789Y-74520477D01*
X132193006Y-74468304D01*
X132174006Y-74401068D01*
X132194374Y-74334232D01*
X132210315Y-74314655D01*
X132252206Y-74272765D01*
X132297585Y-74169991D01*
X132300500Y-74144865D01*
X132300499Y-73055136D01*
X132300497Y-73055117D01*
X132297586Y-73030012D01*
X132297585Y-73030010D01*
X132297585Y-73030009D01*
X132252206Y-72927235D01*
X132172765Y-72847794D01*
X132172763Y-72847793D01*
X132069992Y-72802415D01*
X132044865Y-72799500D01*
X130955143Y-72799500D01*
X130955117Y-72799502D01*
X130930012Y-72802413D01*
X130930008Y-72802415D01*
X130827235Y-72847793D01*
X130747794Y-72927234D01*
X130702415Y-73030006D01*
X130702415Y-73030008D01*
X130699500Y-73055131D01*
X130699500Y-74144856D01*
X130699502Y-74144882D01*
X130702413Y-74169987D01*
X130702415Y-74169991D01*
X130747793Y-74272764D01*
X130789680Y-74314651D01*
X130823165Y-74375974D01*
X130818181Y-74445666D01*
X130806994Y-74468302D01*
X130774209Y-74520480D01*
X130714633Y-74690737D01*
X130714630Y-74690750D01*
X130694435Y-74869996D01*
X130694435Y-74870003D01*
X130714630Y-75049249D01*
X130714631Y-75049254D01*
X130774211Y-75219523D01*
X130870184Y-75372262D01*
X130870185Y-75372263D01*
X130915241Y-75417320D01*
X130948725Y-75478643D01*
X130943740Y-75548335D01*
X130915241Y-75592680D01*
X130870184Y-75637737D01*
X130774211Y-75790476D01*
X130714631Y-75960745D01*
X130714630Y-75960750D01*
X130694435Y-76139996D01*
X130694435Y-76140003D01*
X130714630Y-76319249D01*
X130714633Y-76319262D01*
X130774209Y-76489518D01*
X130774213Y-76489527D01*
X130808503Y-76544100D01*
X130827503Y-76611337D01*
X130807135Y-76678172D01*
X130791198Y-76697745D01*
X130789471Y-76699471D01*
X130664507Y-76851739D01*
X130664503Y-76851746D01*
X130571652Y-77025458D01*
X130530839Y-77159999D01*
X129950500Y-77159999D01*
X129950500Y-70001741D01*
X129950549Y-70000001D01*
X131190517Y-70000001D01*
X131210410Y-70227383D01*
X131210412Y-70227394D01*
X131269485Y-70447862D01*
X131269487Y-70447866D01*
X131269488Y-70447870D01*
X131317721Y-70551305D01*
X131365953Y-70654740D01*
X131365955Y-70654744D01*
X131496878Y-70841719D01*
X131658280Y-71003121D01*
X131845255Y-71134044D01*
X131845259Y-71134046D01*
X132052130Y-71230512D01*
X132272611Y-71289589D01*
X132443044Y-71304500D01*
X132556956Y-71304500D01*
X132727389Y-71289589D01*
X132947870Y-71230512D01*
X133154741Y-71134046D01*
X133341719Y-71003122D01*
X133503122Y-70841719D01*
X133634046Y-70654742D01*
X133730512Y-70447870D01*
X133789589Y-70227389D01*
X133809483Y-70000001D01*
X138190517Y-70000001D01*
X138210410Y-70227383D01*
X138210412Y-70227394D01*
X138269485Y-70447862D01*
X138269487Y-70447866D01*
X138269488Y-70447870D01*
X138317721Y-70551305D01*
X138365953Y-70654740D01*
X138365955Y-70654744D01*
X138496878Y-70841719D01*
X138658280Y-71003121D01*
X138845255Y-71134044D01*
X138845259Y-71134046D01*
X139052130Y-71230512D01*
X139272611Y-71289589D01*
X139443044Y-71304500D01*
X139556956Y-71304500D01*
X139727389Y-71289589D01*
X139947870Y-71230512D01*
X140154741Y-71134046D01*
X140341719Y-71003122D01*
X140503122Y-70841719D01*
X140634046Y-70654742D01*
X140730512Y-70447870D01*
X140789589Y-70227389D01*
X140809483Y-70000000D01*
X140789589Y-69772611D01*
X140730512Y-69552130D01*
X140634046Y-69345259D01*
X140634044Y-69345255D01*
X140503121Y-69158280D01*
X140341719Y-68996878D01*
X140154744Y-68865955D01*
X140154740Y-68865953D01*
X140051305Y-68817721D01*
X139947870Y-68769488D01*
X139947866Y-68769487D01*
X139947862Y-68769485D01*
X139727394Y-68710412D01*
X139727384Y-68710410D01*
X139556956Y-68695500D01*
X139443044Y-68695500D01*
X139272615Y-68710410D01*
X139272605Y-68710412D01*
X139052137Y-68769485D01*
X139052128Y-68769489D01*
X138845259Y-68865953D01*
X138845255Y-68865955D01*
X138658280Y-68996878D01*
X138496881Y-69158277D01*
X138496872Y-69158287D01*
X138365955Y-69345254D01*
X138365953Y-69345258D01*
X138269489Y-69552128D01*
X138269485Y-69552137D01*
X138210412Y-69772605D01*
X138210410Y-69772616D01*
X138190517Y-69999998D01*
X138190517Y-70000001D01*
X133809483Y-70000001D01*
X133809483Y-70000000D01*
X133789589Y-69772611D01*
X133730512Y-69552130D01*
X133634046Y-69345259D01*
X133634044Y-69345255D01*
X133503121Y-69158280D01*
X133341719Y-68996878D01*
X133154744Y-68865955D01*
X133154740Y-68865953D01*
X133051305Y-68817721D01*
X132947870Y-68769488D01*
X132947866Y-68769487D01*
X132947862Y-68769485D01*
X132727394Y-68710412D01*
X132727384Y-68710410D01*
X132556956Y-68695500D01*
X132443044Y-68695500D01*
X132272615Y-68710410D01*
X132272605Y-68710412D01*
X132052137Y-68769485D01*
X132052128Y-68769489D01*
X131845259Y-68865953D01*
X131845255Y-68865955D01*
X131658280Y-68996878D01*
X131496881Y-69158277D01*
X131496872Y-69158287D01*
X131365955Y-69345254D01*
X131365953Y-69345258D01*
X131269489Y-69552128D01*
X131269485Y-69552137D01*
X131210412Y-69772605D01*
X131210410Y-69772616D01*
X131190517Y-69999998D01*
X131190517Y-70000001D01*
X129950549Y-70000001D01*
X129950598Y-69998264D01*
X129957338Y-69878232D01*
X129966336Y-69718013D01*
X129967112Y-69711126D01*
X130013837Y-69436119D01*
X130015385Y-69429337D01*
X130039608Y-69345258D01*
X130092606Y-69161293D01*
X130094899Y-69154741D01*
X130201653Y-68897014D01*
X130204656Y-68890779D01*
X130339599Y-68646619D01*
X130343282Y-68640757D01*
X130504716Y-68413237D01*
X130509026Y-68407832D01*
X130694911Y-68199826D01*
X130699829Y-68194909D01*
X130907832Y-68009026D01*
X130913237Y-68004716D01*
X131140757Y-67843282D01*
X131146619Y-67839599D01*
X131390779Y-67704656D01*
X131397014Y-67701653D01*
X131654741Y-67594899D01*
X131661293Y-67592606D01*
X131929337Y-67515385D01*
X131936120Y-67513837D01*
X132211126Y-67467112D01*
X132218013Y-67466336D01*
X132370969Y-67457746D01*
X132498265Y-67450598D01*
X132501742Y-67450500D01*
X132539882Y-67450500D01*
X139460118Y-67450500D01*
X139498258Y-67450500D01*
X139501735Y-67450598D01*
G37*
%TD.AperFunction*%
%TD*%
M02*
