%TF.GenerationSoftware,KiCad,Pcbnew,7.0.8*%
%TF.CreationDate,2024-05-19T14:47:34-04:00*%
%TF.ProjectId,TempHumiditySensor,54656d70-4875-46d6-9964-69747953656e,rev?*%
%TF.SameCoordinates,Original*%
%TF.FileFunction,Legend,Top*%
%TF.FilePolarity,Positive*%
%FSLAX46Y46*%
G04 Gerber Fmt 4.6, Leading zero omitted, Abs format (unit mm)*
G04 Created by KiCad (PCBNEW 7.0.8) date 2024-05-19 14:47:34*
%MOMM*%
%LPD*%
G01*
G04 APERTURE LIST*
%ADD10C,0.155000*%
%ADD11C,0.120000*%
%ADD12C,0.152400*%
G04 APERTURE END LIST*
D10*
X135583333Y-77704559D02*
X135250000Y-77228368D01*
X135011905Y-77704559D02*
X135011905Y-76704559D01*
X135011905Y-76704559D02*
X135392857Y-76704559D01*
X135392857Y-76704559D02*
X135488095Y-76752178D01*
X135488095Y-76752178D02*
X135535714Y-76799797D01*
X135535714Y-76799797D02*
X135583333Y-76895035D01*
X135583333Y-76895035D02*
X135583333Y-77037892D01*
X135583333Y-77037892D02*
X135535714Y-77133130D01*
X135535714Y-77133130D02*
X135488095Y-77180749D01*
X135488095Y-77180749D02*
X135392857Y-77228368D01*
X135392857Y-77228368D02*
X135011905Y-77228368D01*
X135964286Y-76799797D02*
X136011905Y-76752178D01*
X136011905Y-76752178D02*
X136107143Y-76704559D01*
X136107143Y-76704559D02*
X136345238Y-76704559D01*
X136345238Y-76704559D02*
X136440476Y-76752178D01*
X136440476Y-76752178D02*
X136488095Y-76799797D01*
X136488095Y-76799797D02*
X136535714Y-76895035D01*
X136535714Y-76895035D02*
X136535714Y-76990273D01*
X136535714Y-76990273D02*
X136488095Y-77133130D01*
X136488095Y-77133130D02*
X135916667Y-77704559D01*
X135916667Y-77704559D02*
X136535714Y-77704559D01*
X135583333Y-73204559D02*
X135250000Y-72728368D01*
X135011905Y-73204559D02*
X135011905Y-72204559D01*
X135011905Y-72204559D02*
X135392857Y-72204559D01*
X135392857Y-72204559D02*
X135488095Y-72252178D01*
X135488095Y-72252178D02*
X135535714Y-72299797D01*
X135535714Y-72299797D02*
X135583333Y-72395035D01*
X135583333Y-72395035D02*
X135583333Y-72537892D01*
X135583333Y-72537892D02*
X135535714Y-72633130D01*
X135535714Y-72633130D02*
X135488095Y-72680749D01*
X135488095Y-72680749D02*
X135392857Y-72728368D01*
X135392857Y-72728368D02*
X135011905Y-72728368D01*
X136535714Y-73204559D02*
X135964286Y-73204559D01*
X136250000Y-73204559D02*
X136250000Y-72204559D01*
X136250000Y-72204559D02*
X136154762Y-72347416D01*
X136154762Y-72347416D02*
X136059524Y-72442654D01*
X136059524Y-72442654D02*
X135964286Y-72490273D01*
X139738095Y-76954559D02*
X139738095Y-77764082D01*
X139738095Y-77764082D02*
X139785714Y-77859320D01*
X139785714Y-77859320D02*
X139833333Y-77906940D01*
X139833333Y-77906940D02*
X139928571Y-77954559D01*
X139928571Y-77954559D02*
X140119047Y-77954559D01*
X140119047Y-77954559D02*
X140214285Y-77906940D01*
X140214285Y-77906940D02*
X140261904Y-77859320D01*
X140261904Y-77859320D02*
X140309523Y-77764082D01*
X140309523Y-77764082D02*
X140309523Y-76954559D01*
X141309523Y-77954559D02*
X140738095Y-77954559D01*
X141023809Y-77954559D02*
X141023809Y-76954559D01*
X141023809Y-76954559D02*
X140928571Y-77097416D01*
X140928571Y-77097416D02*
X140833333Y-77192654D01*
X140833333Y-77192654D02*
X140738095Y-77240273D01*
X140833333Y-74109320D02*
X140785714Y-74156940D01*
X140785714Y-74156940D02*
X140642857Y-74204559D01*
X140642857Y-74204559D02*
X140547619Y-74204559D01*
X140547619Y-74204559D02*
X140404762Y-74156940D01*
X140404762Y-74156940D02*
X140309524Y-74061701D01*
X140309524Y-74061701D02*
X140261905Y-73966463D01*
X140261905Y-73966463D02*
X140214286Y-73775987D01*
X140214286Y-73775987D02*
X140214286Y-73633130D01*
X140214286Y-73633130D02*
X140261905Y-73442654D01*
X140261905Y-73442654D02*
X140309524Y-73347416D01*
X140309524Y-73347416D02*
X140404762Y-73252178D01*
X140404762Y-73252178D02*
X140547619Y-73204559D01*
X140547619Y-73204559D02*
X140642857Y-73204559D01*
X140642857Y-73204559D02*
X140785714Y-73252178D01*
X140785714Y-73252178D02*
X140833333Y-73299797D01*
X141785714Y-74204559D02*
X141214286Y-74204559D01*
X141500000Y-74204559D02*
X141500000Y-73204559D01*
X141500000Y-73204559D02*
X141404762Y-73347416D01*
X141404762Y-73347416D02*
X141309524Y-73442654D01*
X141309524Y-73442654D02*
X141214286Y-73490273D01*
X133166666Y-72454559D02*
X133166666Y-73168844D01*
X133166666Y-73168844D02*
X133119047Y-73311701D01*
X133119047Y-73311701D02*
X133023809Y-73406940D01*
X133023809Y-73406940D02*
X132880952Y-73454559D01*
X132880952Y-73454559D02*
X132785714Y-73454559D01*
X134166666Y-73454559D02*
X133595238Y-73454559D01*
X133880952Y-73454559D02*
X133880952Y-72454559D01*
X133880952Y-72454559D02*
X133785714Y-72597416D01*
X133785714Y-72597416D02*
X133690476Y-72692654D01*
X133690476Y-72692654D02*
X133595238Y-72740273D01*
D11*
%TO.C,R2*%
X134630000Y-76596359D02*
X134630000Y-76903641D01*
X133870000Y-76596359D02*
X133870000Y-76903641D01*
%TO.C,R1*%
X136130000Y-74096359D02*
X136130000Y-74403641D01*
X135370000Y-74096359D02*
X135370000Y-74403641D01*
D12*
%TO.C,U1*%
X137853365Y-74619700D02*
X137119700Y-74619700D01*
X138646635Y-76880300D02*
X139380300Y-76880300D01*
X139380300Y-74619700D02*
X138646635Y-74619700D01*
X137119700Y-76880300D02*
X137853365Y-76880300D01*
X135992702Y-75250001D02*
G75*
G03*
X135992702Y-75250001I-101600J0D01*
G01*
D11*
%TO.C,C1*%
X138184264Y-74110001D02*
X138399936Y-74110001D01*
X138184264Y-73390001D02*
X138399936Y-73390001D01*
%TO.C,J1*%
X130390000Y-72840000D02*
X131500000Y-72840000D01*
X130390000Y-74360000D02*
X130936529Y-74360000D01*
X132063471Y-74360000D02*
X132610000Y-74360000D01*
X130390000Y-73600000D02*
X130390000Y-72840000D01*
X130390000Y-74360000D02*
X130390000Y-78105000D01*
X131807530Y-78105000D02*
X132610000Y-78105000D01*
X132610000Y-74360000D02*
X132610000Y-78105000D01*
X130390000Y-78105000D02*
X131192470Y-78105000D01*
%TD*%
M02*
